<svg width="384" height="28" fill="none" xmlns="http://www.w3.org/2000/svg"><path d="M.48 8.874V.234H1.55v3.81h4.548V.233h1.068v8.64H6.097V5.057H1.549v3.817H.48zm10.21.18c-.484 0-.89-.088-1.218-.264a1.88 1.88 0 0 1-.738-.708 1.927 1.927 0 0 1-.246-.96c0-.34.064-.635.192-.883.132-.252.316-.46.552-.624.236-.168.518-.3.846-.396a9.678 9.678 0 0 1 1.033-.216c.383-.064.771-.122 1.164-.174.392-.052.758-.102 1.098-.15l-.384.222c.012-.576-.104-1.002-.348-1.278-.24-.276-.656-.414-1.248-.414-.393 0-.737.09-1.033.27-.292.176-.498.464-.618.864l-1.014-.306c.156-.568.458-1.014.906-1.338.448-.324 1.038-.486 1.77-.486.588 0 1.093.106 1.513.318.424.208.728.524.912.948.092.2.15.418.174.654.024.232.036.476.036.732v4.009h-.948V7.319l.222.144c-.244.525-.586.92-1.026 1.189-.437.268-.969.402-1.597.402zm.162-.894c.384 0 .716-.068.996-.204.285-.14.513-.322.685-.546.172-.229.284-.477.336-.745.06-.2.092-.422.096-.666.008-.248.012-.438.012-.57l.372.162c-.348.048-.69.094-1.026.138-.337.044-.655.092-.955.144-.3.048-.57.106-.81.174a2.636 2.636 0 0 0-.498.216 1.132 1.132 0 0 0-.372.342.89.89 0 0 0-.138.51c0 .176.044.345.132.505.092.16.232.29.42.39.192.1.442.15.75.15zm4.027.714 2.616-3.24-2.49-3.24h1.188l2.406 3.18v-3.18h.972v3.18l2.406-3.18h1.188l-2.49 3.24 2.616 3.24H22.05l-2.478-3.18v3.18h-.972v-3.18l-2.478 3.18h-1.242zm14.673-6.48v6.48H28.52V4.097l-3.396 4.777h-.882v-6.48h1.032v4.71l3.402-4.71h.876zm1.675 6.48v-6.48h.918l2.46 5.027 2.46-5.028h.918v6.48H36.95V4.62l-2.064 4.255h-.564l-2.064-4.255v4.255h-1.032zm10.274.18c-.484 0-.89-.088-1.218-.264a1.88 1.88 0 0 1-.738-.708 1.927 1.927 0 0 1-.246-.96c0-.34.064-.635.192-.883.132-.252.316-.46.552-.624.236-.168.518-.3.846-.396a9.673 9.673 0 0 1 1.032-.216 35.38 35.38 0 0 1 1.164-.174c.392-.052.758-.102 1.098-.15l-.384.222c.012-.576-.104-1.002-.348-1.278-.24-.276-.656-.414-1.248-.414-.392 0-.736.09-1.032.27-.292.176-.498.464-.618.864l-1.014-.306c.156-.568.458-1.014.906-1.338.448-.324 1.038-.486 1.77-.486.588 0 1.092.106 1.512.318.424.208.728.524.912.948.092.2.15.418.174.654.024.232.036.476.036.732v4.009h-.948V7.319l.222.144c-.244.525-.586.92-1.026 1.189-.436.268-.968.402-1.596.402zm.162-.894c.384 0 .716-.068.996-.204a1.91 1.91 0 0 0 .684-.546c.172-.229.284-.477.336-.745.06-.2.092-.422.096-.666.008-.248.012-.438.012-.57l.372.162c-.348.048-.69.094-1.026.138-.336.044-.654.092-.954.144-.3.048-.57.106-.81.174a2.638 2.638 0 0 0-.498.216 1.131 1.131 0 0 0-.372.342.89.89 0 0 0-.138.51c0 .176.044.345.132.505.092.16.232.29.42.39.192.1.442.15.75.15zm8.748.714V6.527h-1.398c-.164 0-.346-.006-.546-.018a6.977 6.977 0 0 1-.552-.066 2.219 2.219 0 0 1-1.188-.618c-.32-.324-.48-.772-.48-1.344 0-.556.15-1.002.45-1.338.304-.34.678-.56 1.122-.66.2-.048.402-.074.606-.078.208-.008.384-.012.528-.012h2.526l.007 6.48H50.41zm-4.362 0 1.722-2.64h1.152l-1.722 2.64H46.05zm2.886-3.229h1.476v-2.37h-1.476c-.092 0-.214.004-.366.012-.148.008-.29.032-.426.072a1.112 1.112 0 0 0-.678.57c-.08.152-.12.332-.12.54 0 .3.084.544.252.732.168.184.372.308.612.372.132.032.262.052.39.06.132.008.244.012.336.012zm11.037 2.61-2.088-2.628 2.088-2.622.612.48-1.71 2.142 1.71 2.149-.612.48zm-2.19 0-2.088-2.628 2.088-2.622.612.48-1.71 2.142 1.71 2.149-.612.48zm7.977.799c-.86 0-1.59-.19-2.19-.57a3.664 3.664 0 0 1-1.374-1.585c-.312-.676-.468-1.458-.468-2.346 0-.888.156-1.67.468-2.346A3.664 3.664 0 0 1 63.57.623c.6-.38 1.33-.57 2.19-.57.864 0 1.596.19 2.196.57.6.38 1.056.908 1.368 1.584.313.676.469 1.458.469 2.346 0 .888-.157 1.67-.469 2.346a3.625 3.625 0 0 1-1.368 1.585c-.6.38-1.332.57-2.196.57zm0-1.02c.644.004 1.18-.14 1.608-.432.432-.297.754-.707.966-1.23.216-.525.325-1.13.325-1.819 0-.692-.109-1.298-.325-1.818a2.624 2.624 0 0 0-.966-1.218c-.428-.292-.964-.44-1.608-.444-.644-.004-1.18.14-1.608.432-.424.292-.744.7-.96 1.224-.216.524-.326 1.132-.33 1.824-.004.688.102 1.292.318 1.812.216.52.538.928.966 1.225.432.292.97.44 1.614.444zm6.954.84V3.365h-2.256v-.972h5.58v.972h-2.256v5.509h-1.068zm4.454 0v-6.48h5.31v6.48H81.41V3.407h-3.174v5.467h-1.068zm9.967.18c-.608 0-1.12-.15-1.536-.45a2.846 2.846 0 0 1-.948-1.23 4.587 4.587 0 0 1-.318-1.747c0-.652.106-1.236.318-1.752.216-.516.532-.922.948-1.218.42-.296.934-.444 1.542-.444.6 0 1.116.15 1.548.45.436.296.77.702 1.002 1.218.232.516.348 1.098.348 1.746 0 .648-.116 1.23-.348 1.747a2.927 2.927 0 0 1-1.002 1.23c-.432.3-.95.45-1.554.45zm-2.982 2.7v-9.36h.954v4.77h.12v4.59h-1.074zm2.85-3.678c.428 0 .782-.108 1.062-.324.28-.216.49-.509.63-.877.14-.372.21-.788.21-1.248 0-.456-.07-.868-.21-1.236a1.879 1.879 0 0 0-.636-.876c-.284-.216-.646-.324-1.086-.324-.42 0-.768.104-1.044.312-.276.204-.482.49-.618.858a3.608 3.608 0 0 0-.204 1.266c0 .472.066.894.198 1.266.136.368.344.659.624.87.28.209.638.313 1.074.313zm6.194.978c-.484 0-.89-.088-1.219-.264a1.88 1.88 0 0 1-.738-.708 1.927 1.927 0 0 1-.246-.96c0-.34.064-.635.192-.883.132-.252.316-.46.552-.624.236-.168.518-.3.847-.396a9.676 9.676 0 0 1 1.031-.216c.385-.064.773-.122 1.165-.174.392-.052.758-.102 1.098-.15l-.384.222c.012-.576-.104-1.002-.348-1.278-.24-.276-.656-.414-1.249-.414-.392 0-.736.09-1.032.27-.291.176-.497.464-.618.864l-1.014-.306c.156-.568.458-1.014.906-1.338.449-.324 1.038-.486 1.77-.486.589 0 1.093.106 1.513.318.424.208.728.524.912.948.092.2.15.418.174.654.024.232.036.476.036.732v4.009h-.948V7.319l.222.144c-.244.525-.586.92-1.026 1.189-.436.268-.969.402-1.597.402zm.162-.894c.383 0 .716-.068.996-.204.284-.14.512-.322.684-.546.172-.229.284-.477.336-.745.06-.2.092-.422.096-.666.008-.248.012-.438.012-.57l.372.162c-.348.048-.69.094-1.026.138-.336.044-.654.092-.954.144-.3.048-.57.106-.81.174a2.638 2.638 0 0 0-.498.216 1.132 1.132 0 0 0-.373.342.89.89 0 0 0-.138.51c0 .176.044.345.132.505.092.16.233.29.42.39.192.1.442.15.75.15zm4.74.714v-6.48h2.76c.164 0 .34.01.528.03.192.015.366.045.522.09.348.091.634.281.858.57.228.283.342.643.342 1.08 0 .243-.038.455-.114.635-.072.18-.176.336-.312.468a1.295 1.295 0 0 1-.414.276c.14.024.282.078.426.162.228.124.406.298.534.522.132.224.198.51.198.858 0 .44-.106.805-.318 1.093a1.62 1.62 0 0 1-.876.588 2.767 2.767 0 0 1-.516.09c-.188.012-.37.018-.546.018h-3.072zm1.08-.87h1.932c.084 0 .184-.008.3-.024.12-.016.226-.036.318-.06a.716.716 0 0 0 .45-.336c.096-.164.144-.343.144-.535 0-.256-.072-.464-.216-.624a.924.924 0 0 0-.558-.3 1.174 1.174 0 0 0-.276-.042 6.261 6.261 0 0 0-.258-.006h-1.836v1.927zm0-2.809h1.608c.112 0 .23-.006.354-.018.124-.016.232-.042.324-.078a.72.72 0 0 0 .402-.336c.088-.16.132-.334.132-.522 0-.208-.048-.39-.144-.546a.716.716 0 0 0-.426-.33 1.318 1.318 0 0 0-.432-.078 7.872 7.872 0 0 0-.3-.012h-1.518v1.92zm10.758-2.802v6.48h-1.032V4.098l-3.396 4.777h-.882v-6.48h1.032v4.71l3.402-4.71h.876zm3.396 6.48V3.366h-2.256v-.972h5.581v.972h-2.256v5.509h-1.069zm4.461 0-.006-6.48h1.074V4.74h1.398c.188 0 .38.004.576.012.196.008.366.026.51.054.336.064.63.176.882.336.252.16.448.378.588.654.14.272.21.61.21 1.014 0 .56-.146 1.005-.438 1.333-.288.324-.666.54-1.134.648-.16.036-.344.06-.552.072-.204.008-.398.012-.582.012h-2.526zm1.068-.881h1.476c.12 0 .254-.004.402-.012.148-.008.28-.028.396-.06.204-.06.386-.178.546-.354.164-.176.246-.429.246-.757 0-.332-.08-.588-.24-.768a1.104 1.104 0 0 0-.618-.354 2.122 2.122 0 0 0-.366-.054 5.877 5.877 0 0 0-.366-.012h-1.476v2.37zm6.035.264-.612-.48 1.71-2.149-1.71-2.142.612-.48 2.088 2.622-2.088 2.629zm2.19 0-.612-.48 1.71-2.149-1.71-2.142.612-.48 2.088 2.622-2.088 2.629zm3.771 1.962.066-.498c.168.012.294-.02.378-.096a.535.535 0 0 0 .162-.312c.024-.132.028-.278.012-.438h-.618V7.518h1.176v1.536c0 .42-.104.736-.312.948-.204.212-.492.284-.864.216zm9.865-1.344V6.527h-1.398c-.164 0-.346-.006-.546-.018a6.974 6.974 0 0 1-.552-.066 2.222 2.222 0 0 1-1.189-.618c-.32-.324-.48-.772-.48-1.344 0-.556.15-1.002.45-1.338.304-.34.678-.56 1.123-.66.2-.048.402-.074.606-.078.208-.008.384-.012.528-.012h2.526l.006 6.48h-1.074zm-4.363 0 1.723-2.64h1.152l-1.723 2.64h-1.152zm2.887-3.229h1.476v-2.37h-1.476c-.092 0-.214.004-.366.012a1.86 1.86 0 0 0-.426.072 1.112 1.112 0 0 0-.678.57 1.133 1.133 0 0 0-.121.54c0 .3.085.544.253.732.168.184.372.308.612.372.132.032.262.052.39.06.132.008.244.012.336.012zm9.368 3.409c-.656 0-1.214-.146-1.674-.438a2.85 2.85 0 0 1-1.044-1.218c-.24-.517-.364-1.105-.372-1.765.008-.676.134-1.27.378-1.782a2.836 2.836 0 0 1 1.062-1.206c.46-.288 1.014-.432 1.662-.432.684 0 1.272.168 1.764.504.496.336.828.796.996 1.38l-1.056.318a1.736 1.736 0 0 0-.666-.876 1.814 1.814 0 0 0-1.05-.312c-.444 0-.81.104-1.098.312a1.808 1.808 0 0 0-.642.852c-.14.36-.212.774-.216 1.242.008.72.174 1.302.498 1.747.328.44.814.66 1.458.66.424 0 .776-.096 1.056-.288.28-.196.492-.479.636-.847l1.08.282c-.224.605-.574 1.067-1.05 1.387-.476.32-1.05.48-1.722.48zm6.581 0c-.644 0-1.2-.146-1.668-.438a2.903 2.903 0 0 1-1.074-1.212c-.252-.517-.378-1.109-.378-1.777 0-.68.128-1.276.384-1.788s.618-.91 1.086-1.194c.468-.288 1.018-.432 1.65-.432.648 0 1.206.146 1.675.438.468.288.826.69 1.074 1.206.252.512.378 1.102.378 1.77 0 .676-.126 1.272-.378 1.788a2.897 2.897 0 0 1-1.08 1.207c-.469.288-1.025.432-1.669.432zm0-1.014c.672 0 1.172-.224 1.501-.672.328-.449.492-1.029.492-1.74 0-.733-.166-1.315-.498-1.747-.333-.436-.831-.654-1.495-.654-.452 0-.824.102-1.116.306-.292.204-.51.486-.654.846-.144.36-.216.776-.216 1.248 0 .728.168 1.312.504 1.753.336.44.83.66 1.482.66zm4.448.834v-6.48h4.5v1.013h-3.432v5.467h-1.068zm4.92 0v-.918c.24.044.422.036.546-.024a.583.583 0 0 0 .282-.33c.064-.16.116-.36.156-.6.068-.38.126-.805.174-1.273.052-.468.098-.98.138-1.536.044-.56.084-1.16.12-1.8h4.53v6.48h-1.068V3.408h-2.49c-.024.368-.054.746-.09 1.134-.032.388-.066.766-.102 1.134-.036.364-.076.704-.12 1.02-.04.312-.084.582-.132.81-.076.393-.182.707-.318.943a.938.938 0 0 1-.588.45c-.256.072-.602.064-1.038-.024zm9.473.18c-.484 0-.89-.088-1.218-.264a1.88 1.88 0 0 1-.738-.708 1.927 1.927 0 0 1-.246-.96c0-.34.064-.635.192-.883.132-.252.316-.46.552-.624.236-.168.518-.3.846-.396a9.676 9.676 0 0 1 1.032-.216 35.38 35.38 0 0 1 1.164-.174c.392-.052.759-.102 1.099-.15l-.384.222c.012-.576-.104-1.002-.349-1.278-.24-.276-.656-.414-1.248-.414-.392 0-.736.09-1.032.27-.292.176-.498.464-.618.864l-1.014-.306c.156-.568.458-1.014.906-1.338.448-.324 1.038-.486 1.77-.486.588 0 1.092.106 1.513.318.424.208.728.524.912.948.092.2.15.418.174.654.024.232.036.476.036.732v4.009h-.948V7.319l.222.144c-.244.525-.587.92-1.027 1.189-.436.268-.968.402-1.596.402zm.162-.894c.384 0 .716-.068.996-.204.284-.14.512-.322.684-.546a1.79 1.79 0 0 0 .337-.745c.06-.2.092-.422.096-.666.008-.248.012-.438.012-.57l.372.162c-.348.048-.691.094-1.027.138-.336.044-.654.092-.954.144-.3.048-.57.106-.81.174a2.638 2.638 0 0 0-.498.216 1.131 1.131 0 0 0-.372.342.89.89 0 0 0-.138.51c0 .176.044.345.132.505.092.16.232.29.42.39.192.1.442.15.75.15zm4.741.714v-6.48h1.032v5.508h2.232V2.393h1.032v5.509h2.226V2.393h1.032v6.48h-7.554zm11.071.18c-.484 0-.89-.088-1.218-.264a1.88 1.88 0 0 1-.738-.708 1.927 1.927 0 0 1-.246-.96c0-.34.064-.635.192-.883.132-.252.316-.46.552-.624.236-.168.518-.3.846-.396a9.676 9.676 0 0 1 1.032-.216 35.38 35.38 0 0 1 1.164-.174c.392-.052.758-.102 1.098-.15l-.384.222c.012-.576-.104-1.002-.348-1.278-.24-.276-.656-.414-1.248-.414-.392 0-.736.09-1.032.27-.292.176-.498.464-.618.864l-1.014-.306c.156-.568.458-1.014.906-1.338.448-.324 1.038-.486 1.77-.486.588 0 1.092.106 1.512.318.424.208.728.524.912.948.092.2.15.418.174.654.024.232.036.476.036.732v4.009h-.948V7.319l.222.144c-.244.525-.586.92-1.026 1.189-.436.268-.968.402-1.596.402zm.162-.894c.384 0 .716-.068.996-.204.284-.14.512-.322.684-.546.172-.229.284-.477.336-.745.06-.2.092-.422.096-.666.008-.248.012-.438.012-.57l.372.162c-.348.048-.69.094-1.026.138-.336.044-.654.092-.954.144-.3.048-.57.106-.81.174a2.638 2.638 0 0 0-.498.216 1.131 1.131 0 0 0-.372.342.89.89 0 0 0-.138.51c0 .176.044.345.132.505.092.16.232.29.42.39.192.1.442.15.75.15zm10.033.894c-.552 0-1.04-.118-1.464-.354a2.71 2.71 0 0 1-1.015-1.002c-.256-.433-.416-.943-.48-1.53h-1.266v2.706h-1.068v-6.48h1.068v2.705h1.26c.064-.6.226-1.116.486-1.548a2.65 2.65 0 0 1 1.027-.99c.424-.232.912-.348 1.464-.348.644 0 1.198.146 1.662.438.468.292.826.694 1.074 1.206.252.512.378 1.1.378 1.764 0 .676-.128 1.272-.384 1.788-.252.517-.612.92-1.08 1.213-.464.288-1.018.432-1.662.432zm-.018-1.014c.68 0 1.184-.222 1.512-.666.332-.449.498-1.03.498-1.747 0-.736-.168-1.32-.504-1.752-.332-.432-.832-.648-1.5-.648-.644 0-1.134.214-1.47.642-.336.428-.504 1.012-.504 1.752 0 .732.166 1.318.498 1.758.336.44.826.66 1.47.66zm7.189 1.014c-.656 0-1.214-.146-1.674-.438a2.845 2.845 0 0 1-1.045-1.218c-.24-.517-.364-1.105-.372-1.765.008-.676.134-1.27.378-1.782a2.832 2.832 0 0 1 1.063-1.206c.46-.288 1.014-.432 1.662-.432.684 0 1.272.168 1.764.504.496.336.828.796.996 1.38l-1.056.318a1.736 1.736 0 0 0-.666-.876 1.814 1.814 0 0 0-1.05-.312c-.444 0-.81.104-1.098.312a1.808 1.808 0 0 0-.642.852c-.14.36-.212.774-.216 1.242.008.72.174 1.302.498 1.747.328.44.814.66 1.458.66.424 0 .776-.096 1.056-.288.28-.196.492-.479.636-.847l1.08.282c-.224.605-.574 1.067-1.05 1.387-.476.32-1.05.48-1.722.48zm3.996-.18-.006-6.48h1.074v2.345h1.399c.188 0 .38.004.576.012.196.008.366.026.51.054.336.064.63.176.882.336.252.16.448.378.588.654.14.272.21.61.21 1.014 0 .56-.146 1.005-.438 1.333-.288.324-.666.54-1.134.648-.16.036-.344.06-.552.072-.204.008-.398.012-.582.012h-2.527zm1.068-.882h1.477c.12 0 .254-.004.402-.012.148-.008.28-.028.396-.06.204-.06.386-.178.546-.354.164-.176.246-.429.246-.757 0-.332-.08-.588-.24-.768a1.104 1.104 0 0 0-.618-.354 2.122 2.122 0 0 0-.366-.054 5.877 5.877 0 0 0-.366-.012h-1.477v2.37zm10.616 1.062c-.656 0-1.214-.146-1.674-.438a2.85 2.85 0 0 1-1.044-1.218c-.24-.517-.364-1.105-.372-1.765.008-.676.134-1.27.378-1.782a2.836 2.836 0 0 1 1.062-1.206c.46-.288 1.014-.432 1.662-.432.684 0 1.272.168 1.764.504.496.336.828.796.996 1.38l-1.056.318a1.736 1.736 0 0 0-.666-.876 1.814 1.814 0 0 0-1.05-.312c-.444 0-.81.104-1.098.312a1.808 1.808 0 0 0-.642.852c-.14.36-.212.774-.216 1.242.008.72.174 1.302.498 1.747.328.44.814.66 1.458.66.424 0 .776-.096 1.056-.288.28-.196.492-.479.636-.847l1.08.282c-.224.605-.574 1.067-1.05 1.387-.476.32-1.05.48-1.722.48zm9.16 0c-.644 0-1.2-.146-1.668-.438a2.903 2.903 0 0 1-1.074-1.212c-.252-.517-.378-1.109-.378-1.777 0-.68.128-1.276.384-1.788s.618-.91 1.086-1.194c.468-.288 1.018-.432 1.65-.432.648 0 1.206.146 1.674.438.468.288.826.69 1.074 1.206.252.512.378 1.102.378 1.77 0 .676-.126 1.272-.378 1.788a2.897 2.897 0 0 1-1.08 1.207c-.468.288-1.024.432-1.668.432zm0-1.014c.672 0 1.172-.224 1.5-.672.328-.449.492-1.029.492-1.74 0-.733-.166-1.315-.498-1.747-.332-.436-.83-.654-1.494-.654-.452 0-.824.102-1.116.306-.292.204-.51.486-.654.846-.144.36-.216.776-.216 1.248 0 .728.168 1.312.504 1.753.336.44.83.66 1.482.66zm7.081 1.02c-.612-.004-1.134-.136-1.566-.396-.432-.264-.768-.65-1.008-1.159-.24-.508-.374-1.13-.402-1.866-.016-.34-.012-.714.012-1.122.028-.408.072-.8.132-1.176.064-.376.144-.686.24-.93a2.95 2.95 0 0 1 .456-.81c.2-.252.424-.46.672-.624.252-.172.534-.306.846-.402.312-.096.638-.17.978-.222.344-.056.688-.104 1.032-.144.344-.044.672-.096.984-.156l.108.96c-.22.048-.48.09-.78.126-.3.032-.612.07-.936.114-.32.044-.628.106-.924.186a2.608 2.608 0 0 0-.756.318c-.312.188-.552.47-.72.846-.164.372-.264.79-.3 1.254.248-.384.57-.666.966-.846.396-.18.818-.27 1.266-.27.58 0 1.08.136 1.5.408.42.268.742.638.966 1.11.228.472.342 1.01.342 1.614 0 .64-.128 1.2-.384 1.68s-.618.853-1.086 1.117c-.464.264-1.01.394-1.638.39zm.066-1.014c.628 0 1.104-.194 1.428-.582.324-.393.486-.913.486-1.56 0-.665-.168-1.187-.504-1.567-.336-.384-.808-.576-1.416-.576-.616 0-1.088.192-1.416.576-.324.38-.486.902-.486 1.566 0 .668.164 1.192.492 1.573.328.38.8.57 1.416.57zm7.343 1.008c-.608 0-1.12-.15-1.536-.45a2.846 2.846 0 0 1-.948-1.23 4.587 4.587 0 0 1-.318-1.747c0-.652.106-1.236.318-1.752.216-.516.532-.922.948-1.218.42-.296.934-.444 1.542-.444.6 0 1.116.15 1.548.45.436.296.77.702 1.002 1.218.232.516.348 1.098.348 1.746 0 .648-.116 1.23-.348 1.747a2.927 2.927 0 0 1-1.002 1.23c-.432.3-.95.45-1.554.45zm-2.982 2.7v-9.36h.954v4.77h.12v4.59h-1.074zm2.85-3.678c.428 0 .782-.108 1.062-.324.28-.216.49-.509.63-.877.14-.372.21-.788.21-1.248 0-.456-.07-.868-.21-1.236a1.879 1.879 0 0 0-.636-.876c-.284-.216-.646-.324-1.086-.324-.42 0-.768.104-1.044.312-.276.204-.482.49-.618.858a3.608 3.608 0 0 0-.204 1.266c0 .472.066.894.198 1.266.136.368.344.659.624.87.28.209.638.313 1.074.313zm6.194.978c-.484 0-.89-.088-1.218-.264a1.88 1.88 0 0 1-.738-.708 1.927 1.927 0 0 1-.246-.96c0-.34.064-.635.192-.883.132-.252.316-.46.552-.624.236-.168.518-.3.846-.396a9.676 9.676 0 0 1 1.032-.216 35.38 35.38 0 0 1 1.164-.174c.392-.052.758-.102 1.098-.15l-.384.222c.012-.576-.104-1.002-.348-1.278-.24-.276-.656-.414-1.248-.414-.392 0-.736.09-1.032.27-.292.176-.498.464-.618.864l-1.014-.306c.156-.568.458-1.014.906-1.338.448-.324 1.038-.486 1.77-.486.588 0 1.092.106 1.512.318.424.208.728.524.912.948.092.2.15.418.174.654.024.232.036.476.036.732v4.009h-.948V7.319l.222.144c-.244.525-.586.92-1.026 1.189-.436.268-.968.402-1.596.402zm.162-.894c.384 0 .716-.068.996-.204.284-.14.512-.322.684-.546.172-.229.284-.477.336-.745.06-.2.092-.422.096-.666.008-.248.012-.438.012-.57l.372.162c-.348.048-.69.094-1.026.138-.336.044-.654.092-.954.144-.3.048-.57.106-.81.174a2.638 2.638 0 0 0-.498.216 1.131 1.131 0 0 0-.372.342.89.89 0 0 0-.138.51c0 .176.044.345.132.505.092.16.232.29.42.39.192.1.442.15.75.15zm7.38.9c-.612-.004-1.134-.136-1.566-.396-.432-.264-.768-.65-1.008-1.159-.24-.508-.374-1.13-.402-1.866-.016-.34-.012-.714.012-1.122.028-.408.072-.8.132-1.176.064-.376.144-.686.24-.93a2.95 2.95 0 0 1 .456-.81c.2-.252.424-.46.672-.624.252-.172.534-.306.846-.402.312-.096.638-.17.978-.222.344-.056.688-.104 1.032-.144.344-.044.672-.096.984-.156l.108.96c-.22.048-.48.09-.78.126-.3.032-.612.07-.936.114-.32.044-.628.106-.924.186a2.608 2.608 0 0 0-.756.318c-.312.188-.552.47-.72.846-.164.372-.264.79-.3 1.254.248-.384.57-.666.966-.846.396-.18.818-.27 1.266-.27.58 0 1.08.136 1.5.408.42.268.742.638.966 1.11.228.472.342 1.01.342 1.614 0 .64-.128 1.2-.384 1.68s-.618.853-1.086 1.117c-.464.264-1.01.394-1.638.39zm.066-1.014c.628 0 1.104-.194 1.428-.582.324-.393.486-.913.486-1.56 0-.665-.168-1.187-.504-1.567-.336-.384-.808-.576-1.416-.576-.616 0-1.088.192-1.416.576-.324.38-.486.902-.486 1.566 0 .668.164 1.192.492 1.573.328.38.8.57 1.416.57zm7.127 1.008c-.644 0-1.2-.146-1.668-.438a2.903 2.903 0 0 1-1.074-1.212c-.252-.517-.378-1.109-.378-1.777 0-.68.128-1.276.384-1.788s.618-.91 1.086-1.194c.468-.288 1.018-.432 1.65-.432.648 0 1.206.146 1.674.438.468.288.826.69 1.074 1.206.252.512.378 1.102.378 1.77 0 .676-.126 1.272-.378 1.788a2.897 2.897 0 0 1-1.08 1.207c-.468.288-1.024.432-1.668.432zm0-1.014c.672 0 1.172-.224 1.5-.672.328-.449.492-1.029.492-1.74 0-.733-.166-1.315-.498-1.747-.332-.436-.83-.654-1.494-.654-.452 0-.824.102-1.116.306-.292.204-.51.486-.654.846-.144.36-.216.776-.216 1.248 0 .728.168 1.312.504 1.753.336.44.83.66 1.482.66zm6.023.834V3.365h-2.256v-.972h5.58v.972h-2.256v5.509h-1.068zm4.454 0 .006-6.48h1.08v3.12l2.718-3.12h1.386l-2.862 3.24 3.198 3.24h-1.494l-2.946-3.12v3.12h-1.086zm8.766.18c-.644 0-1.2-.146-1.668-.438a2.903 2.903 0 0 1-1.074-1.212c-.252-.517-.378-1.109-.378-1.777 0-.68.128-1.276.384-1.788s.618-.91 1.086-1.194c.468-.288 1.018-.432 1.65-.432.648 0 1.206.146 1.675.438.468.288.826.69 1.074 1.206.252.512.378 1.102.378 1.77 0 .676-.126 1.272-.378 1.788a2.897 2.897 0 0 1-1.08 1.207c-.469.288-1.025.432-1.669.432zm0-1.014c.672 0 1.172-.224 1.5-.672.329-.449.493-1.029.493-1.74 0-.733-.166-1.315-.499-1.747-.332-.436-.83-.654-1.494-.654-.452 0-.824.102-1.116.306-.292.204-.51.486-.654.846-.144.36-.216.776-.216 1.248 0 .728.168 1.312.504 1.753.336.44.83.66 1.482.66zm7.238-6.403c-.3 0-.574-.074-.822-.222a1.706 1.706 0 0 1-.594-.588 1.585 1.585 0 0 1-.222-.828h.864c0 .212.076.394.228.546a.745.745 0 0 0 .546.228.732.732 0 0 0 .546-.228.745.745 0 0 0 .228-.546h.864c0 .304-.074.58-.222.828-.144.244-.342.44-.594.588a1.574 1.574 0 0 1-.822.222zm2.514.756v6.48h-1.032V4.098l-3.396 4.777h-.882v-6.48h1.032v4.71l3.402-4.71h.876zm4.077 6.48v-6.48h5.31v6.48h-1.068V3.408h-3.174v5.467h-1.068zm9.799.18c-.636 0-1.192-.14-1.668-.42a2.942 2.942 0 0 1-1.104-1.181c-.264-.509-.396-1.1-.396-1.777 0-.708.13-1.32.39-1.836.26-.52.622-.92 1.086-1.2.468-.284 1.016-.426 1.644-.426.652 0 1.206.15 1.662.45.46.3.804.728 1.032 1.284.232.556.332 1.218.3 1.986h-1.08V5.55c-.012-.796-.174-1.39-.486-1.782-.312-.396-.776-.594-1.392-.594-.66 0-1.162.212-1.506.636-.344.424-.516 1.032-.516 1.824 0 .764.172 1.356.516 1.777.344.42.834.63 1.47.63.428 0 .8-.098 1.116-.294a2 2 0 0 0 .744-.847l1.026.354a2.906 2.906 0 0 1-1.14 1.333 3.16 3.16 0 0 1-1.698.468zm-2.394-3.12v-.858h4.788v.858h-4.788zm9.652 3.12c-.608 0-1.12-.15-1.536-.45a2.846 2.846 0 0 1-.948-1.23 4.587 4.587 0 0 1-.318-1.746c0-.652.106-1.236.318-1.752.216-.516.532-.922.948-1.218.42-.296.934-.444 1.542-.444.6 0 1.116.15 1.548.45.436.296.77.702 1.002 1.218.232.516.348 1.098.348 1.746 0 .648-.116 1.23-.348 1.747a2.927 2.927 0 0 1-1.002 1.23c-.432.3-.95.45-1.554.45zm-2.982 2.7v-9.36h.954v4.77h.12v4.59h-1.074zm2.85-3.677c.428 0 .782-.108 1.062-.324.28-.216.49-.509.63-.877.14-.372.21-.788.21-1.248 0-.456-.07-.868-.21-1.236a1.879 1.879 0 0 0-.636-.876c-.284-.216-.646-.324-1.086-.324-.42 0-.768.104-1.044.312-.276.204-.482.49-.618.858a3.608 3.608 0 0 0-.204 1.266c0 .472.066.894.198 1.266.136.368.344.659.624.87.28.209.638.313 1.074.313zm7.082.978c-.656 0-1.214-.146-1.674-.438a2.85 2.85 0 0 1-1.044-1.218c-.24-.517-.364-1.105-.372-1.765.008-.676.134-1.27.378-1.782a2.836 2.836 0 0 1 1.062-1.206c.46-.288 1.014-.432 1.662-.432.684 0 1.272.168 1.764.504.496.336.828.796.996 1.38l-1.056.318a1.736 1.736 0 0 0-.666-.876 1.814 1.814 0 0 0-1.05-.312c-.444 0-.81.104-1.098.312a1.808 1.808 0 0 0-.642.852c-.14.36-.212.774-.216 1.242.008.72.174 1.302.498 1.747.328.44.814.66 1.458.66.424 0 .776-.096 1.056-.288.28-.196.492-.479.636-.847l1.08.282c-.224.605-.574 1.067-1.05 1.387-.476.32-1.05.48-1.722.48zm6.581 0c-.644 0-1.2-.146-1.668-.438a2.903 2.903 0 0 1-1.074-1.212c-.252-.517-.378-1.109-.378-1.777 0-.68.128-1.276.384-1.788s.618-.91 1.086-1.194c.468-.288 1.018-.432 1.65-.432.648 0 1.206.146 1.674.438.468.288.826.69 1.074 1.206.252.512.378 1.102.378 1.77 0 .676-.126 1.272-.378 1.788a2.897 2.897 0 0 1-1.08 1.207c-.468.288-1.024.432-1.668.432zm0-1.014c.672 0 1.172-.224 1.5-.672.328-.449.492-1.029.492-1.74 0-.733-.166-1.315-.498-1.747-.332-.436-.83-.654-1.494-.654-.452 0-.824.102-1.116.306-.292.204-.51.486-.654.846-.144.36-.216.776-.216 1.248 0 .728.168 1.312.504 1.753.336.44.83.66 1.482.66zm4.441.834v-6.48h1.069v2.73h3.408v-2.73h1.068v6.48h-1.068V6.137h-3.408v2.737h-1.069zm9.068.18c-.484 0-.89-.088-1.218-.264a1.88 1.88 0 0 1-.738-.708 1.927 1.927 0 0 1-.246-.96c0-.34.064-.635.192-.883.132-.252.316-.46.552-.624.236-.168.518-.3.846-.396a9.676 9.676 0 0 1 1.032-.216 35.38 35.38 0 0 1 1.164-.174c.392-.052.758-.102 1.098-.15l-.384.222c.012-.576-.104-1.002-.348-1.278-.24-.276-.656-.414-1.248-.414-.392 0-.736.09-1.032.27-.292.176-.498.464-.618.864l-1.014-.306c.156-.568.458-1.014.906-1.338.448-.324 1.038-.486 1.77-.486.588 0 1.092.106 1.512.318.424.208.728.524.912.948.092.2.15.418.174.654.024.232.036.476.036.732v4.009h-.948V7.319l.222.144c-.244.525-.586.92-1.026 1.189-.436.268-.968.402-1.596.402zm.162-.894c.384 0 .716-.068.996-.204.284-.14.512-.322.684-.546.172-.229.284-.477.336-.745.06-.2.092-.422.096-.666.008-.248.012-.438.012-.57l.372.162c-.348.048-.69.094-1.026.138-.336.044-.654.092-.954.144-.3.048-.57.106-.81.174a2.638 2.638 0 0 0-.498.216 1.131 1.131 0 0 0-.372.342.89.89 0 0 0-.138.51c0 .176.044.345.132.505.092.16.232.29.42.39.192.1.442.15.75.15zm4.146.714v-.918c.24.044.422.036.546-.024a.583.583 0 0 0 .282-.33c.064-.16.116-.36.156-.6.068-.38.126-.805.174-1.273.052-.468.098-.98.138-1.536.044-.56.084-1.16.12-1.8h4.53v6.48h-1.068V3.408h-2.49c-.024.368-.054.746-.09 1.134-.032.388-.066.766-.102 1.134-.036.364-.076.704-.12 1.02-.04.312-.084.582-.132.81-.076.393-.182.707-.318.943a.938.938 0 0 1-.588.45c-.256.072-.602.064-1.038-.024zm7.632 0-.006-6.48h1.074v2.345h1.398c.188 0 .38.004.576.012.196.008.366.026.51.054.336.064.63.176.882.336.252.16.448.378.588.654.14.272.21.61.21 1.014 0 .56-.146 1.005-.438 1.333-.288.324-.666.54-1.134.648-.16.036-.344.06-.552.072-.204.008-.398.012-.582.012h-2.526zm1.068-.882h1.476c.12 0 .254-.004.402-.012.148-.008.28-.028.396-.06.204-.06.386-.178.546-.354.164-.176.246-.429.246-.757 0-.332-.08-.588-.24-.768a1.104 1.104 0 0 0-.618-.354 2.122 2.122 0 0 0-.366-.054 5.877 5.877 0 0 0-.366-.012h-1.476v2.37zm5.301.882v-6.48h1.068v2.73h3.408v-2.73h1.068v6.48h-1.068V6.137h-3.408v2.737h-1.068zm7.225 0-.006-6.48h1.074v2.345h.99c.188 0 .38.004.577.012.196.008.366.026.51.054.336.068.63.182.882.342.252.16.448.376.588.648.14.272.21.61.21 1.014 0 .56-.146 1.005-.438 1.333-.288.324-.666.54-1.134.648-.16.036-.344.06-.552.072a14.97 14.97 0 0 1-.583.012h-2.118zm1.068-.882h1.068c.12 0 .254-.004.403-.012.148-.008.28-.028.396-.06.204-.06.386-.178.546-.354.164-.176.246-.429.246-.757 0-.332-.08-.588-.24-.768a1.104 1.104 0 0 0-.618-.354 2.119 2.119 0 0 0-.367-.054 5.877 5.877 0 0 0-.366-.012h-1.068v2.37zm4.501.882v-6.48h1.068v6.48h-1.068zm2.032 0 2.478-3.277-2.424-3.204h1.272l1.776 2.376 1.758-2.376h1.272l-2.424 3.204L384 8.874h-1.279l-1.812-2.449-1.824 2.449h-1.278zM.001 26.314v-2.322c.364 0 .624-.117.78-.354.156-.24.282-.634.378-1.182.064-.344.116-.712.156-1.104.04-.392.074-.828.102-1.308.032-.484.062-1.034.09-1.65H5.97v5.599h.63v2.322h-1.02v-1.44h-4.56v1.44H0zm1.644-2.322h3.258v-4.716h-2.43a41.173 41.173 0 0 1-.12 1.818c-.024.308-.054.6-.09.876-.032.272-.07.516-.114.732-.052.3-.112.554-.18.762a1.277 1.277 0 0 1-.324.529zm8.002 1.063c-.484 0-.89-.088-1.218-.264a1.882 1.882 0 0 1-.738-.709 1.927 1.927 0 0 1-.246-.96c0-.34.064-.634.192-.882.132-.252.316-.46.552-.624.236-.168.518-.3.846-.396a9.676 9.676 0 0 1 1.033-.216 35.38 35.38 0 0 1 1.164-.174c.392-.052.758-.102 1.098-.15l-.384.222c.012-.576-.104-1.002-.348-1.278-.24-.276-.657-.414-1.248-.414-.393 0-.737.09-1.033.27-.292.176-.498.464-.618.864l-1.014-.306c.156-.568.458-1.014.906-1.338.448-.324 1.038-.486 1.77-.486.588 0 1.092.106 1.513.318.424.208.728.524.912.948.092.2.15.418.174.654.024.232.036.476.036.732v4.009h-.948V23.32l.222.145c-.244.523-.586.92-1.027 1.188-.436.268-.968.402-1.596.402zm.162-.895c.385 0 .716-.067.997-.204.284-.14.512-.322.684-.546.172-.227.284-.476.336-.744.06-.2.092-.422.096-.666.008-.248.012-.438.012-.57l.372.162c-.348.048-.69.094-1.026.138-.336.044-.654.092-.954.144-.3.048-.57.106-.81.174a2.64 2.64 0 0 0-.499.216 1.132 1.132 0 0 0-.372.342.89.89 0 0 0-.138.51c0 .177.044.345.132.505.092.16.232.29.42.39.192.1.442.15.75.15zm4.74.715v-6.48h1.069v2.73h3.408v-2.73h1.068v6.48h-1.068v-2.737h-3.408v2.737H14.55zm7.22 0v-6.48h1.068v2.73h3.408v-2.73h1.068v6.48h-1.068v-2.737h-3.408v2.737h-1.068zm7.225 0-.006-6.48h1.074v2.345h.99c.188 0 .38.004.576.012.196.008.366.026.51.054.336.068.63.182.882.342.252.16.448.376.588.648.14.272.21.61.21 1.014 0 .56-.146 1.005-.438 1.332-.288.325-.666.54-1.134.649-.16.036-.344.06-.552.072-.204.008-.398.012-.582.012h-2.118zm1.068-.883h1.068c.12 0 .254-.004.402-.012.148-.008.28-.027.396-.06.204-.06.386-.178.546-.354.164-.175.246-.427.246-.756 0-.332-.08-.588-.24-.768a1.104 1.104 0 0 0-.618-.354 2.122 2.122 0 0 0-.366-.054 5.878 5.878 0 0 0-.366-.012h-1.068v2.37zm4.5.883v-6.48h1.069v6.48h-1.069zm2.033 0 2.478-3.277-2.424-3.204h1.272l1.776 2.376 1.758-2.376h1.272l-2.424 3.204 2.484 3.277H41.51l-1.812-2.449-1.824 2.449h-1.278zm9.55 0v-6.48h1.069v2.73h3.408v-2.73h1.068v6.48h-1.068v-2.737h-3.408v2.737h-1.069zm9.068.18c-.484 0-.89-.088-1.218-.264a1.882 1.882 0 0 1-.738-.709 1.927 1.927 0 0 1-.246-.96c0-.34.064-.634.192-.882.132-.252.316-.46.552-.624.236-.168.518-.3.846-.396a9.676 9.676 0 0 1 1.032-.216c.384-.064.772-.122 1.164-.174.392-.052.758-.102 1.098-.15l-.384.222c.012-.576-.104-1.002-.348-1.278-.24-.276-.656-.414-1.248-.414-.392 0-.736.09-1.032.27-.292.176-.498.464-.618.864l-1.014-.306c.156-.568.458-1.014.906-1.338.448-.324 1.038-.486 1.77-.486.588 0 1.092.106 1.512.318.424.208.728.524.912.948.092.2.15.418.174.654.024.232.036.476.036.732v4.009h-.948V23.32l.222.145c-.244.523-.586.92-1.026 1.188-.436.268-.968.402-1.596.402zm.162-.895c.384 0 .716-.067.996-.204.284-.14.512-.322.684-.546a1.79 1.79 0 0 0 .336-.744c.06-.2.092-.422.096-.666.008-.248.012-.438.012-.57l.372.162c-.348.048-.69.094-1.026.138-.336.044-.654.092-.954.144-.3.048-.57.106-.81.174a2.639 2.639 0 0 0-.498.216 1.131 1.131 0 0 0-.372.342.89.89 0 0 0-.138.51c0 .177.044.345.132.505.092.16.232.29.42.39.192.1.442.15.75.15zm8.049 3.595 1.254-3.409.018 1.009-2.832-6.96h1.122l2.22 5.598h-.384l2.082-5.599h1.086l-3.528 9.36h-1.038zm8.053-2.7c-.656 0-1.214-.146-1.674-.439a2.85 2.85 0 0 1-1.044-1.218c-.24-.516-.365-1.104-.373-1.764.008-.676.135-1.27.379-1.782a2.837 2.837 0 0 1 1.062-1.206c.46-.288 1.014-.432 1.662-.432.684 0 1.272.168 1.764.504.496.336.828.796.996 1.38l-1.056.318a1.736 1.736 0 0 0-.666-.876 1.815 1.815 0 0 0-1.05-.312c-.444 0-.81.104-1.098.312a1.808 1.808 0 0 0-.642.852c-.14.36-.212.774-.216 1.242.008.72.174 1.302.498 1.747.328.44.814.66 1.458.66.424 0 .776-.096 1.056-.288.28-.197.492-.479.636-.847l1.08.283c-.224.604-.574 1.066-1.05 1.386-.476.32-1.05.48-1.722.48zm3.22-.18v-.919c.24.044.423.037.547-.023a.583.583 0 0 0 .282-.33c.064-.16.116-.36.156-.6.068-.38.126-.805.174-1.273.052-.468.098-.98.138-1.536.044-.56.084-1.16.12-1.8h4.53v6.48h-1.068v-5.466h-2.49c-.024.368-.054.746-.09 1.134-.032.388-.066.766-.102 1.134-.036.364-.076.704-.12 1.02-.04.313-.084.582-.132.81-.076.392-.182.706-.318.942a.937.937 0 0 1-.588.45c-.256.073-.602.065-1.038-.023zm10.393.18c-.645 0-1.2-.146-1.669-.439a2.902 2.902 0 0 1-1.074-1.212c-.252-.516-.378-1.108-.378-1.776 0-.68.128-1.276.384-1.788s.618-.91 1.087-1.194c.468-.288 1.017-.432 1.65-.432.648 0 1.206.146 1.674.438.468.288.826.69 1.074 1.206.252.512.378 1.102.378 1.77 0 .676-.126 1.272-.378 1.788a2.897 2.897 0 0 1-1.08 1.206c-.468.289-1.024.433-1.668.433zm0-1.014c.672 0 1.172-.224 1.5-.672.328-.449.492-1.029.492-1.74 0-.733-.166-1.315-.498-1.747-.332-.436-.83-.654-1.494-.654-.453 0-.825.102-1.117.306-.291.204-.51.486-.653.846-.144.36-.217.776-.217 1.248 0 .728.169 1.312.505 1.753.335.44.83.66 1.482.66zm4.44.834v-6.48h2.761c.164 0 .34.01.528.03.192.015.366.045.522.09.348.091.634.281.858.57.228.283.342.643.342 1.08 0 .243-.038.455-.114.635-.072.18-.176.336-.312.468a1.301 1.301 0 0 1-.414.276c.14.024.282.078.426.162.228.124.406.298.534.522.132.224.198.51.198.858 0 .44-.106.805-.318 1.093a1.62 1.62 0 0 1-.876.588 2.767 2.767 0 0 1-.516.09c-.188.012-.37.018-.546.018h-3.072zm1.08-.87h1.933c.084 0 .184-.008.3-.024.12-.017.226-.037.318-.06a.716.716 0 0 0 .45-.337c.096-.163.144-.341.144-.534 0-.256-.072-.464-.216-.624a.924.924 0 0 0-.558-.3 1.174 1.174 0 0 0-.276-.042 6.262 6.262 0 0 0-.258-.006h-1.836v1.927zm0-2.809h1.609c.112 0 .23-.006.354-.018.124-.016.232-.042.324-.078a.72.72 0 0 0 .402-.336c.088-.16.132-.334.132-.522 0-.208-.048-.39-.144-.546a.716.716 0 0 0-.426-.33 1.319 1.319 0 0 0-.432-.078 7.872 7.872 0 0 0-.3-.012h-1.518v1.92zm10.759-2.802v6.48h-1.032v-4.776l-3.396 4.777h-.882v-6.48h1.032v4.71l3.402-4.71h.876zm5.683 6.48v-2.346h-1.398c-.164 0-.346-.006-.546-.018a6.974 6.974 0 0 1-.552-.066 2.218 2.218 0 0 1-1.189-.618c-.32-.324-.48-.772-.48-1.344 0-.556.15-1.002.45-1.338.304-.34.678-.56 1.123-.66.2-.048.402-.074.606-.078.208-.008.384-.012.528-.012h2.526l.006 6.48h-1.074zm-4.363 0 1.722-2.64h1.153l-1.723 2.64h-1.152zm2.887-3.228h1.476v-2.37h-1.476c-.092 0-.214.004-.366.012a1.86 1.86 0 0 0-.426.072 1.125 1.125 0 0 0-.379.198c-.12.096-.22.22-.3.372-.08.152-.12.332-.12.54 0 .3.084.544.252.732.168.184.373.308.613.372.132.032.262.052.39.06.132.008.244.012.336.012zm3.516 3.229 2.478-3.277-2.424-3.204h1.272l1.776 2.376 1.758-2.376h1.272l-2.424 3.204 2.484 3.277h-1.278l-1.812-2.449-1.824 2.449h-1.278zm194.775 0v-1.177h1.176v1.177h-1.176z" fill="#7A7687"/><path d="M118.648 24.875v-8.641h6.744v8.64h-1.068v-7.626h-4.608v7.627h-1.068zm11.186.18c-.644 0-1.2-.146-1.668-.439a2.902 2.902 0 0 1-1.074-1.212c-.252-.516-.378-1.108-.378-1.776 0-.68.128-1.276.384-1.788s.618-.91 1.086-1.194c.468-.288 1.018-.432 1.65-.432.649 0 1.207.146 1.675.438.468.288.826.69 1.074 1.206.252.512.378 1.102.378 1.77 0 .676-.126 1.272-.378 1.788a2.897 2.897 0 0 1-1.08 1.206c-.468.289-1.024.433-1.669.433zm0-1.014c.673 0 1.173-.224 1.501-.672.328-.449.492-1.029.492-1.74 0-.733-.166-1.315-.498-1.747-.332-.436-.83-.654-1.495-.654-.452 0-.824.102-1.116.306-.292.204-.51.486-.654.846-.144.36-.216.776-.216 1.248 0 .728.168 1.312.504 1.753.336.44.83.66 1.482.66zm3.848.834v-.919c.24.044.422.037.546-.023a.583.583 0 0 0 .282-.33c.064-.16.116-.36.156-.6.068-.38.126-.805.174-1.273.052-.468.098-.98.138-1.536.044-.56.084-1.16.12-1.8h4.53v6.48h-1.068v-5.466h-2.49c-.024.368-.054.746-.09 1.134-.032.388-.066.766-.102 1.134-.036.364-.076.704-.12 1.02-.04.313-.084.582-.132.81-.076.392-.182.706-.318.942a.937.937 0 0 1-.588.45c-.256.073-.602.065-1.038-.023zm12.936-6.48v6.48h-1.032v-4.777l-3.396 4.777h-.883v-6.48h1.033v4.71l3.402-4.71h.876zm3.396 6.48v-5.509h-2.256v-.972h5.581v.972h-2.257v5.509h-1.068zm9.765-6.48v6.48h-1.032v-4.777l-3.397 4.777h-.882v-6.48h1.032v4.71l3.403-4.71h.876zm1.674 6.48.006-6.48h1.08v3.12l2.718-3.12h1.387l-2.863 3.24 3.199 3.24h-1.495l-2.946-3.12v3.12h-1.086zm11.428-6.48v6.48h-1.032v-4.777l-3.396 4.777h-.882v-6.48h1.032v4.71l3.402-4.71h.876zm4.077 6.48.006-6.48h1.08v3.12l2.718-3.12h1.386l-2.862 3.24 3.198 3.24h-1.494l-2.946-3.12v3.12h-1.086zm8.767.18c-.644 0-1.2-.146-1.668-.439a2.898 2.898 0 0 1-1.075-1.212c-.252-.516-.378-1.108-.378-1.776 0-.68.128-1.276.384-1.788s.618-.91 1.087-1.194c.468-.288 1.018-.432 1.65-.432.648 0 1.206.146 1.674.438.468.288.826.69 1.074 1.206.252.512.378 1.102.378 1.77 0 .676-.126 1.272-.378 1.788a2.897 2.897 0 0 1-1.08 1.206c-.468.289-1.024.433-1.668.433zm0-1.014c.672 0 1.172-.224 1.5-.672.328-.449.492-1.029.492-1.74 0-.733-.166-1.315-.498-1.747-.332-.436-.83-.654-1.494-.654-.452 0-.824.102-1.116.306-.292.204-.51.486-.654.846-.144.36-.217.776-.217 1.248 0 .728.169 1.312.505 1.753.336.44.83.66 1.482.66zm4.441.834v-6.48h1.068v2.73h3.408v-2.73h1.068v6.48h-1.068v-2.737h-3.408v2.737h-1.068zm10.285 2.7v-2.58c-.632.1-1.208.032-1.728-.204-.516-.24-.928-.627-1.236-1.159-.304-.536-.456-1.2-.456-1.992 0-.796.152-1.462.456-1.998.308-.536.72-.922 1.236-1.158.52-.24 1.096-.31 1.728-.21V16.3h.972v1.974c.632-.1 1.206-.03 1.722.21.52.236.933.622 1.237 1.158.308.536.462 1.202.462 1.998 0 .792-.154 1.456-.462 1.992a2.72 2.72 0 0 1-1.237 1.159c-.516.236-1.09.304-1.722.204v2.58h-.972zm0-3.558v-4.759a2.076 2.076 0 0 0-.906.03c-.28.072-.526.208-.738.408-.212.2-.378.462-.498.786s-.18.71-.18 1.158c0 .444.06.828.18 1.152.124.324.292.586.504.786.216.197.464.332.744.409.28.072.578.082.894.03zm.972 0c.316.052.614.041.894-.03.28-.072.528-.206.744-.402.216-.2.384-.463.504-.787s.18-.71.18-1.158c0-.452-.06-.84-.18-1.164a1.973 1.973 0 0 0-.492-.786c-.212-.2-.46-.336-.744-.408a2.142 2.142 0 0 0-.906-.024v4.759zm10.05-5.623v6.48h-1.032v-4.776l-3.396 4.777h-.882v-6.48h1.032v4.71l3.402-4.71h.876zm1.201 7.92v-2.322c.364 0 .624-.117.78-.354.156-.24.282-.634.378-1.182.064-.344.116-.712.156-1.104.04-.392.074-.828.102-1.308.032-.484.062-1.034.09-1.65h4.464v5.599h.63v2.322h-1.02v-1.44h-4.56v1.44h-1.02zm1.644-2.322h3.258v-4.716h-2.43a41.171 41.171 0 0 1-.12 1.818c-.024.308-.054.6-.09.876-.032.272-.07.516-.114.732-.052.3-.112.554-.18.762a1.277 1.277 0 0 1-.324.529zm8.969 1.063c-.636 0-1.192-.14-1.668-.42a2.939 2.939 0 0 1-1.105-1.183c-.264-.508-.396-1.1-.396-1.776 0-.708.13-1.32.39-1.836.26-.52.622-.92 1.087-1.2.468-.284 1.016-.426 1.644-.426.652 0 1.206.15 1.662.45.46.3.804.728 1.032 1.284.232.556.332 1.218.3 1.986h-1.08v-.384c-.012-.796-.174-1.39-.486-1.782-.312-.396-.776-.594-1.392-.594-.66 0-1.162.212-1.506.636-.344.424-.516 1.032-.516 1.824 0 .764.172 1.357.516 1.776.344.42.834.63 1.47.63.428 0 .8-.098 1.116-.293a2 2 0 0 0 .744-.847l1.026.355a2.906 2.906 0 0 1-1.14 1.332 3.16 3.16 0 0 1-1.698.468zm-2.395-3.12v-.859h4.789v.858h-4.789zm6.671 2.94v-6.48h1.068v2.73h3.408v-2.73h1.068v6.48h-1.068v-2.737h-3.408v2.737h-1.068zm12.745 1.2v-1.2h-5.526v-6.48h1.068v5.465h3.174v-5.466h1.068v5.509h1.284v2.172h-1.068zm7.332-7.68v6.48h-1.032v-4.777l-3.397 4.777h-.882v-6.48h1.032v4.71l3.403-4.71h.876zm3.522 6.66c-.484 0-.89-.088-1.218-.264a1.882 1.882 0 0 1-.738-.709 1.927 1.927 0 0 1-.246-.96c0-.34.064-.634.192-.882.132-.252.316-.46.552-.624.236-.168.518-.3.846-.396a9.676 9.676 0 0 1 1.032-.216 35.38 35.38 0 0 1 1.164-.174c.392-.052.758-.102 1.098-.15l-.384.222c.012-.576-.104-1.002-.348-1.278-.24-.276-.656-.414-1.248-.414-.392 0-.736.09-1.032.27-.292.176-.498.464-.618.864l-1.014-.306c.156-.568.458-1.014.906-1.338.448-.324 1.038-.486 1.77-.486.588 0 1.092.106 1.512.318.424.208.728.524.912.948.092.2.15.418.174.654.024.232.036.476.036.732v4.009h-.948V23.32l.222.145c-.244.523-.586.92-1.026 1.188-.436.268-.968.402-1.596.402zm.162-.895c.384 0 .716-.067.996-.204.284-.14.512-.322.684-.546a1.79 1.79 0 0 0 .336-.744c.06-.2.092-.422.096-.666.008-.248.012-.438.012-.57l.372.162c-.348.048-.69.094-1.026.138-.336.044-.654.092-.954.144-.3.048-.57.106-.81.174a2.639 2.639 0 0 0-.498.216 1.131 1.131 0 0 0-.372.342.89.89 0 0 0-.138.51c0 .177.044.345.132.505.092.16.232.29.42.39.192.1.442.15.75.15zm4.146.715v-.919c.24.044.422.037.546-.023a.583.583 0 0 0 .282-.33c.064-.16.116-.36.156-.6.069-.38.127-.805.175-1.273.052-.468.098-.98.138-1.536.044-.56.084-1.16.12-1.8h4.53v6.48h-1.068v-5.466h-2.49c-.024.368-.054.746-.09 1.134-.032.388-.066.766-.102 1.134-.036.364-.076.704-.12 1.02-.04.313-.084.582-.132.81-.076.392-.182.706-.318.942a.937.937 0 0 1-.589.45c-.256.073-.602.065-1.038-.023zm7.632 0-.006-6.48h1.074v2.345h1.398c.188 0 .38.004.576.012.196.008.366.026.51.054.336.064.63.176.882.336.252.16.448.378.588.654.14.272.21.61.21 1.014 0 .56-.146 1.005-.438 1.332-.288.325-.666.54-1.134.649-.16.036-.344.06-.552.072-.204.008-.398.012-.582.012h-2.526zm1.068-.883h1.476c.12 0 .254-.004.402-.012.148-.008.28-.027.396-.06.204-.06.386-.178.546-.354.164-.175.246-.427.246-.756 0-.332-.08-.588-.24-.768a1.104 1.104 0 0 0-.618-.354 2.122 2.122 0 0 0-.366-.054 5.877 5.877 0 0 0-.366-.012h-1.476v2.37zm5.302.883v-6.48h1.068v2.73h3.408v-2.73h1.068v6.48h-1.068v-2.737h-3.408v2.737h-1.068zm9.985.18c-.644 0-1.2-.146-1.668-.439a2.902 2.902 0 0 1-1.074-1.212c-.252-.516-.378-1.108-.378-1.776 0-.68.128-1.276.384-1.788s.618-.91 1.086-1.194c.468-.288 1.018-.432 1.65-.432.648 0 1.206.146 1.674.438.468.288.826.69 1.074 1.206.252.512.378 1.102.378 1.77 0 .676-.126 1.272-.378 1.788a2.897 2.897 0 0 1-1.08 1.206c-.468.289-1.024.433-1.668.433zm0-1.014c.672 0 1.172-.224 1.5-.672.328-.449.492-1.029.492-1.74 0-.733-.166-1.315-.498-1.747-.332-.436-.83-.654-1.494-.654-.452 0-.824.102-1.116.306-.292.204-.51.486-.654.846-.144.36-.216.776-.216 1.248 0 .728.168 1.312.504 1.753.336.44.83.66 1.482.66zm7.177 1.014c-.656 0-1.214-.146-1.674-.439a2.85 2.85 0 0 1-1.044-1.218c-.24-.516-.364-1.104-.372-1.764.008-.676.134-1.27.378-1.782a2.836 2.836 0 0 1 1.062-1.206c.46-.288 1.014-.432 1.662-.432.684 0 1.272.168 1.764.504.497.336.829.796.997 1.38l-1.057.318a1.736 1.736 0 0 0-.666-.876 1.815 1.815 0 0 0-1.05-.312c-.444 0-.81.104-1.098.312a1.808 1.808 0 0 0-.642.852c-.14.36-.212.774-.216 1.242.008.72.174 1.302.498 1.747.328.44.814.66 1.458.66.424 0 .776-.096 1.056-.288.28-.197.492-.479.636-.847l1.081.283c-.224.604-.574 1.066-1.051 1.386-.476.32-1.05.48-1.722.48zm5.596-.18v-5.509h-2.256v-.972h5.58v.972h-2.256v5.509h-1.068zm9.764-6.48v6.48h-1.032v-4.777l-3.396 4.777h-.882v-6.48h1.032v4.71l3.402-4.71h.876z" fill="#088269"/></svg>