<svg width="17" height="17" fill="none" xmlns="http://www.w3.org/2000/svg"><path d="M1 8.5c0-.365.257-.666.59-.713l.092-.007h11.986l-4.33-4.55a.748.748 0 0 1-.003-1.018.656.656 0 0 1 .888-.072l.077.07 5.5 5.78a.714.714 0 0 1 .091.119.49.49 0 0 1 .062.128.527.527 0 0 1 .029.095.632.632 0 0 1 .018.14v.056a.854.854 0 0 1-.003.042L16 8.5a.765.765 0 0 1-.134.428l-.006.009a.709.709 0 0 1-.06.072l-5.5 5.781a.657.657 0 0 1-.965-.002.75.75 0 0 1-.064-.937l.066-.08 4.329-4.551H1.682C1.305 9.22 1 8.896 1 8.5z" fill="#202020"/></svg>