<svg width="24" height="24" fill="none" xmlns="http://www.w3.org/2000/svg"><path fill-rule="evenodd" clip-rule="evenodd" d="M4 0a4 4 0 0 0-4 4v16a4 4 0 0 0 4 4h16a4 4 0 0 0 4-4V4a4 4 0 0 0-4-4H4zm13.62 7.873c.1-1.15-1.113-.676-1.113-.676-.9.372-1.827.75-2.764 1.132-2.896 1.181-5.886 2.401-8.434 3.602-1.383.507-.574 1.014-.574 1.014l2.193.677c1.011.304 1.551-.034 1.551-.034l4.722-3.213c1.686-1.15 1.282-.203.877.203l-3.541 3.382c-.54.473-.27.88-.034 1.082.669.59 2.313 1.67 3.033 2.141.187.124.312.205.34.226.168.136 1.08.744 1.686.61.607-.136.675-.914.675-.914l.809-5.31c.121-.918.26-1.802.37-2.508.106-.672.187-1.183.203-1.414z" fill="#F8F7F3"/></svg>