<svg width="24" height="24" fill="none" xmlns="http://www.w3.org/2000/svg"><path fill-rule="evenodd" clip-rule="evenodd" d="M8.725 17.667a6.885 6.885 0 0 0 3.5.958c3.783 0 6.867-3.075 6.85-6.858a6.817 6.817 0 0 0-2.008-4.859 6.794 6.794 0 0 0-4.85-2.016c-3.784 0-6.867 3.083-6.867 6.866a6.887 6.887 0 0 0 1.05 3.65l.167.259-.692 2.533 2.6-.683.25.15zm6.992-4.309.275.134c.04.02.079.037.114.053.14.065.23.107.277.18.059.092.059.5-.116.983-.167.484-.992.925-1.392.984-.358.05-.808.075-1.3-.084a10.09 10.09 0 0 1-1.175-.433c-1.976-.852-3.304-2.794-3.505-3.087l-.02-.03-.002-.002c-.106-.141-.84-1.12-.84-2.13 0-.939.454-1.437.669-1.672L8.75 8.2a.749.749 0 0 1 .55-.258h.4l.045.001c.12.002.274.003.422.357.166.417.583 1.433.633 1.533.05.1.083.217.017.359l-.017.033c-.058.116-.1.202-.192.308l-.1.12a3.714 3.714 0 0 1-.208.239c-.108.108-.208.216-.092.425.125.208.534.883 1.15 1.433.67.599 1.255.85 1.54.973.049.02.088.038.119.052.208.108.333.092.45-.05.116-.133.508-.6.65-.808.141-.2.275-.167.466-.1.139.056.752.355 1.134.541z" fill="#F8F7F3"/><path fill-rule="evenodd" clip-rule="evenodd" d="M4 0a4 4 0 0 0-4 4v16a4 4 0 0 0 4 4h16a4 4 0 0 0 4-4V4a4 4 0 0 0-4-4H4zm11.39 4.125a8.18 8.18 0 0 1 2.677 1.8 8.207 8.207 0 0 1 2.416 5.842c0 4.55-3.708 8.258-8.258 8.258a8.26 8.26 0 0 1-3.95-1.008L3.9 20.167l1.167-4.284a8.282 8.282 0 0 1-1.1-4.125c0-4.55 3.708-8.258 8.258-8.258a8.18 8.18 0 0 1 3.165.625z" fill="#F8F7F3"/></svg>