<svg width="24" height="24" fill="none" xmlns="http://www.w3.org/2000/svg"><path d="M12 21a.716.716 0 0 1-.361-.094C11.24 20.681 2 15.366 2 8.625c0-1.18.367-2.331 1.049-3.289a5.56 5.56 0 0 1 2.75-2.047 5.49 5.49 0 0 1 3.413-.033A5.557 5.557 0 0 1 12 5.25a5.557 5.557 0 0 1 2.788-1.994 5.49 5.49 0 0 1 3.413.033 5.56 5.56 0 0 1 2.75 2.047A5.673 5.673 0 0 1 22 8.625c0 2.869-1.639 5.813-4.87 8.756a29.116 29.116 0 0 1-4.769 3.525A.716.716 0 0 1 12 21zM7.556 4.5c-1.081 0-2.117.435-2.881 1.208A4.151 4.151 0 0 0 3.48 8.625c0 5.175 6.852 9.722 8.519 10.753 1.667-1.031 8.518-5.578 8.518-10.753.001-.954-.324-1.878-.92-2.616a4.065 4.065 0 0 0-2.35-1.432 4.03 4.03 0 0 0-2.715.402 4.107 4.107 0 0 0-1.848 2.052.748.748 0 0 1-.685.465.734.734 0 0 1-.685-.465 4.096 4.096 0 0 0-1.5-1.844 4.02 4.02 0 0 0-2.26-.687z" fill="#202020"/></svg>