<svg width="24" height="24" fill="none" xmlns="http://www.w3.org/2000/svg"><path fill-rule="evenodd" clip-rule="evenodd" d="M4 0a4 4 0 0 0-4 4v16a4 4 0 0 0 4 4h16a4 4 0 0 0 4-4V4a4 4 0 0 0-4-4H4zm14.855 7.916c.492 0 .603.256.492.609v-.001c-.173.808-1.614 2.95-2.06 3.613-.086.127-.135.2-.132.2-.175.287-.238.415 0 .736.086.118.27.3.478.506.215.213.457.452.65.679.699.8 1.24 1.473 1.382 1.937.127.465-.095.705-.572.705h-1.636c-.434 0-.658-.251-1.134-.786-.204-.23-.455-.511-.788-.847-.97-.945-1.399-1.073-1.637-1.073-.333 0-.429.08-.429.56v1.49c0 .4-.127.64-1.175.64-1.732 0-3.654-1.058-5.004-3.027-2.034-2.882-2.59-5.06-2.59-5.493 0-.24.08-.464.556-.464h1.652c.413 0 .573.176.731.643.81 2.354 2.16 4.42 2.716 4.42.208 0 .302-.097.302-.625V9.902c-.04-.692-.278-.993-.455-1.217-.11-.139-.196-.247-.196-.4 0-.193.159-.385.413-.385h2.574c.35 0 .476.192.476.608v3.284c0 .352.143.48.255.48.206 0 .38-.128.762-.512 1.176-1.33 2.018-3.38 2.018-3.38.11-.24.301-.464.714-.464h1.637z" fill="#F8F7F3"/></svg>