<svg width="24" height="24" fill="none" xmlns="http://www.w3.org/2000/svg"><path d="M16.366 13.25a.75.75 0 0 0 0 1.5v-1.5zm.342.75v-.75.75zm2.897 2.628-.745.09.745-.09zm.38 3.124.745-.09-.745.09zM18.053 22v-.75.75zM4.947 22v-.75.75zm-1.932-2.248.745.09-.745-.09zm.38-3.124-.745-.09.745.09zM6.293 14v.75V14zm.341.75a.75.75 0 0 0 0-1.5v1.5zM16.25 7a4.25 4.25 0 0 1-4.25 4.25v1.5A5.75 5.75 0 0 0 17.749 7h-1.5zm-4.25 4.25A4.25 4.25 0 0 1 7.749 7h-1.5a5.75 5.75 0 0 0 5.75 5.75v-1.5zM7.749 7a4.25 4.25 0 0 1 4.25-4.25v-1.5A5.75 5.75 0 0 0 6.249 7h1.5zm4.25-4.25A4.25 4.25 0 0 1 16.249 7h1.5a5.75 5.75 0 0 0-5.75-5.75v1.5zm4.367 12h.342v-1.5h-.342v1.5zm.342 0c.523 0 1.03.196 1.428.557l1.008-1.111a3.625 3.625 0 0 0-2.435-.946v1.5zm1.428.557c.398.36.657.862.724 1.411l1.489-.18a3.776 3.776 0 0 0-1.205-2.342l-1.008 1.11zm.724 1.412.38 3.124 1.49-.182-.381-3.124-1.489.182zm.38 3.123c.022.18.007.36-.045.532l1.437.432c.11-.37.144-.76.098-1.145l-1.49.181zm-.045.532a1.266 1.266 0 0 1-.251.461l1.137.978c.252-.293.44-.637.55-1.007l-1.436-.432zm-.251.461a1.2 1.2 0 0 1-.406.308l.631 1.36a2.7 2.7 0 0 0 .912-.69l-1.137-.978zm-.406.308a1.153 1.153 0 0 1-.485.107v1.5a2.65 2.65 0 0 0 1.116-.246l-.63-1.361zm-.485.107H4.947v1.5h13.106v-1.5zm-13.106 0c-.167 0-.332-.036-.485-.107l-.631 1.36c.35.163.73.247 1.116.247v-1.5zm-.485-.107a1.2 1.2 0 0 1-.406-.308l-1.137.978a2.7 2.7 0 0 0 .912.69l.63-1.36zm-.406-.308c-.113-.132-.2-.29-.251-.46l-1.437.431c.112.37.299.714.55 1.007l1.138-.978zm-.251-.46a1.303 1.303 0 0 1-.045-.532l-1.49-.181c-.046.384-.013.774.098 1.144l1.437-.432zm-.045-.532.38-3.125-1.49-.18-.38 3.123 1.49.181zm.38-3.125c.066-.55.326-1.05.724-1.412l-1.008-1.111a3.777 3.777 0 0 0-1.206 2.343l1.49.18zm.724-1.412c.397-.36.905-.556 1.428-.556v-1.5c-.9 0-1.766.338-2.436.945l1.008 1.111zm1.429-.556h.341v-1.5h-.341v1.5z" fill="#202020"/></svg>