<svg width="96" height="41" fill="none" xmlns="http://www.w3.org/2000/svg"><g clip-path="url(#a)"><path fill-rule="evenodd" clip-rule="evenodd" d="M4.658 25.328a4.833 4.833 0 0 0 5.27-2.33l4.982-8.715a4.884 4.884 0 0 1 3.099 7.177L9.01 37.178a4.815 4.815 0 0 1-6.599 1.78 4.893 4.893 0 0 1-1.766-6.65l4.013-6.98z" fill="#B7B7DB"/><path d="M17.154.652a4.813 4.813 0 0 0-6.598 1.78L1.548 18.174a4.884 4.884 0 0 0 1.77 6.646 4.83 4.83 0 0 0 1.338.508l4.991-8.733a4.832 4.832 0 0 1 5.27-2.33l4.004-6.99A4.893 4.893 0 0 0 17.154.651z" fill="#BDDBC7"/><path d="M26.645 19.702c0-3.246.969-5.934 2.907-8.062a9.539 9.539 0 0 1 7.4-3.21 8.9 8.9 0 0 1 4.242 1.025 9.273 9.273 0 0 1 3.262 2.908V8.779h3.327v21.8c0 3.132-.95 5.651-2.847 7.559-1.899 1.907-4.421 2.864-7.569 2.87-2.758 0-5.023-.69-6.794-2.073a7.923 7.923 0 0 1-3.08-5.383l3.406-.675a5.462 5.462 0 0 0 2.037 3.536c1.124.889 2.602 1.333 4.431 1.333 2.12 0 3.828-.612 5.127-1.836 1.298-1.224 1.95-2.933 1.952-5.126v-3.756a9.759 9.759 0 0 1-3.262 2.861 8.947 8.947 0 0 1-4.194 1.026 9.58 9.58 0 0 1-7.4-3.188c-1.964-2.119-2.945-4.794-2.945-8.025zm3.49 0c0 2.358.665 4.287 1.994 5.788a6.655 6.655 0 0 0 5.197 2.228 6.525 6.525 0 0 0 5.154-2.251c1.302-1.473 1.952-3.394 1.952-5.765 0-2.37-.65-4.307-1.952-5.811a6.523 6.523 0 0 0-5.154-2.242 6.579 6.579 0 0 0-5.173 2.242 8.644 8.644 0 0 0-2.018 5.811zM54.659 30.798h-3.323V8.778h3.262v2.871c.62-.969 1.47-1.77 2.475-2.33a6.813 6.813 0 0 1 3.43-.871 7.311 7.311 0 0 1 3.802.983 6.487 6.487 0 0 1 2.596 2.885 7.75 7.75 0 0 1 2.745-2.838 7.773 7.773 0 0 1 9.208 1.048c1.414 1.442 2.12 3.545 2.12 6.31v13.98h-3.346V17.014c0-1.733-.424-3.05-1.272-3.952a4.367 4.367 0 0 0-3.383-1.356 5.125 5.125 0 0 0-3.728 1.422c-.97.932-1.454 2.27-1.454 4.017v13.654h-3.3V17.013c0-1.733-.422-3.05-1.267-3.952a4.36 4.36 0 0 0-3.37-1.356 4.944 4.944 0 0 0-3.727 1.529c-.982 1.007-1.475 2.418-1.478 4.236l.01 13.328zM81.02 11.837V8.78h3.634V4.889H88v3.89h7.839v3.058H88v12.168c0 1.357.299 2.355.895 2.991.597.637 1.518.948 2.764.933a8.922 8.922 0 0 0 3.201-.765l.77 2.903a10.904 10.904 0 0 1-4.47 1.072c-2.066 0-3.666-.576-4.8-1.729-1.134-1.152-1.702-2.768-1.706-4.846V11.837H81.02z" fill="#202020"/></g><defs><clipPath id="a"><path fill="#fff" d="M0 0h96v41H0z"/></clipPath></defs></svg>