<svg width="49" height="30" fill="none" xmlns="http://www.w3.org/2000/svg"><path d="M49 14.681c0 8.056-6.559 14.68-14.7 14.68-8.066 0-14.7-6.624-14.7-14.68C19.6 6.625 26.158 0 34.224 0 42.441 0 49 6.625 49 14.681z" fill="#F9B50B"/><path d="M29.325 14.756c0-1.054-.151-2.108-.302-3.087h-9.046c.075-.527.226-.978.377-1.58h8.066c-.15-.528-.377-1.055-.603-1.582h-6.86c.226-.527.528-.978.83-1.58h5.2a10.286 10.286 0 0 0-1.13-1.582h-2.865c.453-.527.905-.978 1.508-1.505C21.937 1.43 18.47 0 14.625 0 6.634.226 0 6.625 0 14.681s6.558 14.68 14.7 14.68c3.845 0 7.237-1.505 9.875-3.839.528-.451.98-.978 1.508-1.58h-3.015a10.763 10.763 0 0 1-1.056-1.506h5.127c.301-.452.602-.98.829-1.581h-6.86a7.693 7.693 0 0 1-.603-1.582h8.066c.452-1.355.754-2.86.754-4.517z" fill="#C8191C"/><path d="m19.902 18.445.226-1.355c-.075 0-.226.075-.377.075-.527 0-.603-.301-.527-.452l.452-2.71h.83l.225-1.506h-.753l.15-.903h-1.583s-.904 5.12-.904 5.722c0 .903.527 1.355 1.281 1.355.453 0 .83-.15.98-.226zM20.43 15.96c0 2.183 1.507 2.71 2.713 2.71 1.131 0 1.659-.226 1.659-.226l.302-1.505s-.83.376-1.659.376c-1.734 0-1.432-1.28-1.432-1.28h3.166s.226-.979.226-1.43c0-.979-.528-2.259-2.262-2.259-1.507-.075-2.713 1.656-2.713 3.614zm2.713-2.259c.83 0 .679.979.679 1.054h-1.734c.075-.075.226-1.054 1.055-1.054zM33.018 18.445l.301-1.731s-.754.376-1.357.376c-1.055 0-1.583-.828-1.583-1.807 0-1.882.905-2.86 2.036-2.86.753 0 1.432.451 1.432.451l.226-1.656s-.905-.377-1.81-.377c-1.808 0-3.542 1.581-3.542 4.518 0 1.957.904 3.237 2.789 3.237.678.075 1.508-.15 1.508-.15zM11.383 12.272a6.113 6.113 0 0 0-1.884.301l-.226 1.355s.678-.3 1.733-.3c.528 0 .98.074.98.526 0 .301-.075.377-.075.377h-.678c-1.357 0-2.79.527-2.79 2.333 0 1.43.905 1.732 1.508 1.732 1.055 0 1.583-.677 1.659-.677l-.076.602h1.282l.603-4.292c0-1.882-1.508-1.957-2.036-1.957zm.302 3.463c0 .226-.15 1.506-1.056 1.506-.452 0-.603-.377-.603-.602 0-.377.227-.904 1.433-.904h.226zM14.926 18.595c.377 0 2.337.076 2.337-2.033 0-1.957-1.885-1.58-1.885-2.334 0-.376.302-.527.83-.527.225 0 1.055.076 1.055.076l.226-1.43s-.528-.151-1.508-.151c-1.13 0-2.337.452-2.337 2.033 0 1.806 1.96 1.656 1.96 2.333 0 .452-.528.527-.904.527-.679 0-1.433-.225-1.433-.225l-.226 1.43c.15.15.603.301 1.885.301zM45.985 11.067l-.302 2.108s-.603-.753-1.508-.753c-1.432 0-2.638 1.731-2.638 3.764 0 1.28.603 2.56 1.96 2.56.905 0 1.508-.602 1.508-.602l-.076.527h1.583l1.131-7.454-1.658-.15zm-.754 4.065c0 .828-.377 1.958-1.282 1.958-.527 0-.829-.452-.829-1.28 0-1.28.528-2.033 1.282-2.033.527.075.829.452.829 1.355zM2.863 18.52l.905-5.571.15 5.57h1.056l2.035-5.57-.829 5.57H7.84l1.281-7.453H6.557L4.974 15.66l-.075-4.593H2.637L1.355 18.52h1.508z" fill="#F8F7F3"/><path d="M26.988 18.52c.452-2.56.527-4.668 1.658-4.291.151-.979.377-1.43.528-1.807h-.302c-.678 0-1.281.903-1.281.903l.15-.828h-1.507l-.98 6.023h1.734zM36.637 12.272a6.113 6.113 0 0 0-1.884.301l-.227 1.355s.679-.3 1.734-.3c.528 0 .98.074.98.526 0 .301-.075.377-.075.377h-.678c-1.357 0-2.79.527-2.79 2.333 0 1.43.905 1.732 1.508 1.732 1.055 0 1.583-.677 1.658-.677l-.075.602h1.432l.603-4.292c0-1.882-1.658-1.957-2.186-1.957zm.377 3.463c0 .226-.15 1.506-1.055 1.506-.453 0-.603-.377-.603-.602 0-.377.226-.904 1.432-.904h.226zM40.03 18.52c.453-2.56.528-4.668 1.66-4.291.15-.979.376-1.43.527-1.807h-.302c-.678 0-1.281.903-1.281.903l.15-.828h-1.507l-.98 6.023h1.734z" fill="#F8F7F3"/></svg>