<svg width="66" height="20" fill="none" xmlns="http://www.w3.org/2000/svg"><path d="M58.56.47H46.12c.724 4.092 4.71 7.942 9.058 7.942h9.905c.12-.36.12-.962.12-1.323 0-3.61-3.02-6.618-6.643-6.618z" fill="url(#a)"/><path d="M47.71 9.206V19.53h6.264v-5.473h5.512c3.006 0 5.637-2.114 6.514-4.85H47.71zM26.24.47v19.06h5.383s1.346 0 2.08-1.361c3.67-7.302 4.77-9.53 4.77-9.53h.735V19.53h6.117V.47h-5.383s-1.346.124-2.08 1.362c-3.058 6.312-4.771 9.53-4.771 9.53h-.734V.47H26.24zM0 19.53V.47h6.133s1.717 0 2.699 2.723c2.453 7.179 2.698 8.169 2.698 8.169s.49-1.733 2.699-8.168C15.209.47 16.927.47 16.927.47h6.133v19.06h-6.133V9.257h-.736L12.757 19.53h-2.699L6.624 9.258h-.736V19.53H0z" fill="#4FAD50"/><defs><linearGradient id="a" x1="-.074" y1="10.137" x2="65.852" y2="10.137" gradientUnits="userSpaceOnUse"><stop stop-color="#27B1E6"/><stop offset="1" stop-color="#148ACA"/></linearGradient></defs></svg>