<svg width="20" height="20" viewBox="0 0 20 20" fill="none" xmlns="http://www.w3.org/2000/svg">
<path d="M2.5 6.35547L8.62369 10.523C9.11957 10.8605 9.36751 11.0292 9.6372 11.0945C9.87542 11.1523 10.1246 11.1523 10.3628 11.0945C10.6325 11.0292 10.8804 10.8605 11.3763 10.523L17.5 6.35547M6.1 15.8346H13.9C15.1601 15.8346 15.7902 15.8346 16.2715 15.5962C16.6948 15.3865 17.039 15.0518 17.2548 14.6402C17.5 14.1723 17.5 13.5598 17.5 12.3346V7.66797C17.5 6.44285 17.5 5.8303 17.2548 5.36236C17.039 4.95076 16.6948 4.61611 16.2715 4.40639C15.7902 4.16797 15.1601 4.16797 13.9 4.16797H6.1C4.83988 4.16797 4.20982 4.16797 3.72852 4.40639C3.30516 4.61611 2.96095 4.95076 2.74524 5.36236C2.5 5.8303 2.5 6.44285 2.5 7.66797V12.3346C2.5 13.5598 2.5 14.1723 2.74524 14.6402C2.96095 15.0518 3.30516 15.3865 3.72852 15.5962C4.20982 15.8346 4.83988 15.8346 6.1 15.8346Z" stroke="#7A7687" stroke-width="1.5" stroke-linecap="round" stroke-linejoin="round"/>
</svg>
