<svg width="20" height="20" viewBox="0 0 20 20" fill="none" xmlns="http://www.w3.org/2000/svg">
<path d="M16.6654 14.2187C16.6654 14.4587 16.612 14.7054 16.4984 14.9454C16.3849 15.1854 16.2381 15.412 16.0444 15.6254C15.7173 15.9854 15.3567 16.2454 14.9495 16.412C14.5489 16.5787 14.1149 16.6654 13.6475 16.6654C12.9665 16.6654 12.2387 16.5054 11.4709 16.1787C10.7031 15.852 9.93527 15.412 9.17413 14.8587C8.40631 14.2987 7.67855 13.6787 6.98418 12.992C6.29648 12.2987 5.67555 11.572 5.12138 10.812C4.57389 10.052 4.13323 9.29203 3.81275 8.5387C3.49227 7.7787 3.33203 7.05203 3.33203 6.3587C3.33203 5.90536 3.41215 5.47203 3.57239 5.07203C3.73263 4.66536 3.98635 4.29203 4.34021 3.9587C4.76752 3.5387 5.23489 3.33203 5.72896 3.33203C5.91591 3.33203 6.10285 3.37203 6.26977 3.45203C6.44336 3.53203 6.59693 3.65203 6.71711 3.82536L8.2661 6.00536C8.38628 6.17203 8.47308 6.32536 8.53317 6.47203C8.59326 6.61203 8.62664 6.75203 8.62664 6.8787C8.62664 7.0387 8.5799 7.1987 8.48643 7.35203C8.39963 7.50536 8.27278 7.66536 8.11254 7.82536L7.60511 8.35203C7.53166 8.42536 7.49828 8.51203 7.49828 8.6187C7.49828 8.67203 7.50496 8.7187 7.51831 8.77203C7.53834 8.82536 7.55837 8.86536 7.57172 8.90536C7.6919 9.12536 7.89888 9.41203 8.19266 9.7587C8.49311 10.1054 8.81359 10.4587 9.16077 10.812C9.52131 11.1654 9.8685 11.492 10.2224 11.792C10.5696 12.0854 10.8567 12.2854 11.0837 12.4054C11.117 12.4187 11.1571 12.4387 11.2038 12.4587C11.2573 12.4787 11.3107 12.4854 11.3708 12.4854C11.4843 12.4854 11.5711 12.4454 11.6445 12.372L12.1519 11.872C12.3188 11.7054 12.4791 11.5787 12.6326 11.4987C12.7862 11.4054 12.9398 11.3587 13.1067 11.3587C13.2335 11.3587 13.3671 11.3854 13.514 11.4454C13.6609 11.5054 13.8144 11.592 13.9813 11.7054L16.1913 13.272C16.3649 13.392 16.4851 13.532 16.5585 13.6987C16.6253 13.8654 16.6654 14.032 16.6654 14.2187Z" stroke="#7A7687" stroke-width="1.5" stroke-miterlimit="10"/>
</svg>
