<svg width="24" height="24" viewBox="0 0 24 24" fill="none" xmlns="http://www.w3.org/2000/svg">
<path d="M12 21C11.8736 21.0012 11.7491 20.9689 11.6389 20.9062C11.2407 20.6812 2 15.3656 2 8.62499C2 7.4444 2.36687 6.29374 3.04865 5.336C3.73043 4.37826 4.69256 3.66199 5.79873 3.28866C6.90491 2.91532 8.09907 2.90385 9.21204 3.25586C10.325 3.60787 11.3004 4.30553 12 5.25C12.6996 4.30553 13.675 3.60787 14.788 3.25586C15.9009 2.90385 17.0951 2.91532 18.2013 3.28866C19.3074 3.66199 20.2696 4.37826 20.9513 5.336C21.6331 6.29374 22 7.4444 22 8.62499C22 11.4937 20.3611 14.4375 17.1296 17.3812C15.6623 18.7169 14.0645 19.8979 12.3611 20.9062C12.2509 20.9689 12.1264 21.0012 12 21Z" fill="#088269"/>
</svg>
