<svg width="32" height="32" viewBox="0 0 32 32" fill="none" xmlns="http://www.w3.org/2000/svg">
<circle cx="16" cy="16" r="16" fill="#088269"/>
<path d="M19.0952 23C13.5288 23 9 18.4712 9 12.9048C9.0021 11.95 9.35086 11.0285 9.98142 10.3115C10.612 9.59457 11.4814 9.13098 12.4282 9.00696C12.6695 8.9802 12.9131 9.03101 13.1236 9.15203C13.3341 9.27304 13.5006 9.45796 13.5989 9.67997L15.008 12.9679C15.0811 13.1386 15.1104 13.3248 15.0933 13.5097C15.0762 13.6945 15.0131 13.8722 14.9099 14.0265L13.7461 15.8072C14.2731 16.8766 15.1414 17.74 16.2138 18.2609L17.9735 17.0901C18.1276 16.9862 18.3058 16.9233 18.491 16.9074C18.6762 16.8914 18.8624 16.9229 19.0321 16.999L22.32 18.4011C22.542 18.4994 22.727 18.6659 22.848 18.8764C22.969 19.0869 23.0198 19.3305 22.993 19.5718C22.869 20.5186 22.4054 21.388 21.6885 22.0186C20.9715 22.6491 20.05 22.9979 19.0952 23ZM12.5684 10.1216C11.8918 10.2086 11.2702 10.5392 10.8198 11.0515C10.3694 11.5638 10.1212 12.2227 10.1217 12.9048C10.1235 15.2842 11.0696 17.5655 12.752 19.248C14.4345 20.9304 16.7158 21.8765 19.0952 21.8783C19.7773 21.8788 20.4362 21.6306 20.9485 21.1802C21.4608 20.7298 21.7914 20.1082 21.8784 19.4316L18.5904 18.0295L16.8378 19.2003C16.6765 19.3069 16.4904 19.37 16.2976 19.3835C16.1047 19.397 15.9117 19.3605 15.7371 19.2774C14.431 18.6456 13.3745 17.594 12.7366 16.2909C12.6525 16.117 12.6148 15.9242 12.6271 15.7314C12.6393 15.5385 12.7012 15.3521 12.8067 15.1903L13.9775 13.4096L12.5684 10.1216Z" fill="#F8F7F3"/>
</svg>
