<svg width="13" height="14" viewBox="0 0 13 14" fill="none" xmlns="http://www.w3.org/2000/svg">
<g clip-path="url(#clip0_8717_4915)">
<path d="M6.5 12.5C6.5 12.5 2 9.2 2 5.9C2 3.15 4.25 1.5 6.5 1.5C8.75 1.5 11 3.15 11 5.9C11 9.2 6.5 12.5 6.5 12.5ZM6.5 7.55C6.94755 7.55 7.37678 7.37616 7.69324 7.06673C8.00971 6.75729 8.1875 6.33761 8.1875 5.9C8.1875 5.46239 8.00971 5.04271 7.69324 4.73327C7.37678 4.42384 6.94755 4.25 6.5 4.25C6.05245 4.25 5.62322 4.42384 5.30676 4.73327C4.99029 5.04271 4.8125 5.46239 4.8125 5.9C4.8125 6.33761 4.99029 6.75729 5.30676 7.06673C5.62322 7.37616 6.05245 7.55 6.5 7.55V7.55Z" stroke="#202020"/>
</g>
<defs>
<clipPath id="clip0_8717_4915">
<rect width="13" height="13" fill="white" transform="translate(0 0.5)"/>
</clipPath>
</defs>
</svg>
