<svg width="10" height="11" viewBox="0 0 10 11" fill="none" xmlns="http://www.w3.org/2000/svg">
<path d="M5.42535 1.84667C5.42535 1.65521 5.22636 1.5 4.9809 1.5C4.73544 1.5 4.53646 1.65521 4.53646 1.84667L4.53646 5.03819H1.34667C1.15521 5.03819 1 5.23718 1 5.48264C1 5.7281 1.15521 5.92708 1.34667 5.92708H4.53646L4.53646 9.15333C4.53646 9.34479 4.73544 9.5 4.9809 9.5C5.22636 9.5 5.42535 9.34479 5.42535 9.15333V5.92708H8.65333C8.84479 5.92708 9 5.7281 9 5.48264C9 5.23718 8.84479 5.03819 8.65333 5.03819H5.42535V1.84667Z" fill="#07745E"/>
</svg>
